<svg width="33" height="33" viewBox="0 0 33 33" fill="none" xmlns="http://www.w3.org/2000/svg">
<path fill-rule="evenodd" clip-rule="evenodd" d="M0.958252 0.5H32.9583V32.5H0.958252V0.5ZM17.6501 12.5074C16.2171 13.1034 13.3531 14.3371 9.05817 16.2083C8.36073 16.4856 7.99539 16.757 7.96213 17.0223C7.90592 17.4706 8.4674 17.6472 9.23199 17.8876C9.33599 17.9203 9.44376 17.9542 9.55423 17.9901C10.3065 18.2346 11.3184 18.5207 11.8444 18.5321C12.3216 18.5424 12.8542 18.3457 13.4421 17.9419C17.4551 15.2331 19.5265 13.8639 19.6566 13.8344C19.7483 13.8136 19.8755 13.7874 19.9616 13.8639C20.0478 13.9405 20.0393 14.0855 20.0302 14.1244C19.9746 14.3615 17.7705 16.4106 16.63 17.471C16.2744 17.8015 16.0222 18.036 15.9706 18.0896C15.8551 18.2096 15.7374 18.323 15.6243 18.4321C14.9254 19.1058 14.4013 19.611 15.6533 20.436C16.2549 20.8325 16.7363 21.1603 17.2166 21.4874C17.7411 21.8446 18.2643 22.2009 18.9412 22.6446C19.1136 22.7576 19.2783 22.875 19.4388 22.9894C20.0492 23.4246 20.5976 23.8155 21.2751 23.7532C21.6688 23.717 22.0754 23.3468 22.282 22.2427C22.77 19.6335 23.7294 13.9801 23.9511 11.6505C23.9706 11.4464 23.9461 11.1851 23.9265 11.0705C23.9069 10.9558 23.8659 10.7924 23.7168 10.6715C23.5403 10.5283 23.2678 10.4981 23.1459 10.5001C22.5918 10.51 21.7416 10.8056 17.6501 12.5074Z" fill="#FFC72C"/>
</svg>
