<svg width="33" height="33" viewBox="0 0 33 33" fill="none" xmlns="http://www.w3.org/2000/svg">
<path fill-rule="evenodd" clip-rule="evenodd" d="M0.958252 0.5H32.9583V32.5H0.958252V0.5ZM9.15825 13.8V24.5H12.5583V13.8H9.15825ZM8.95825 10.4C8.95825 11.5 9.75826 12.3 10.8583 12.3C11.9583 12.3 12.7583 11.5 12.7583 10.4C12.7583 9.3 11.9583 8.5 10.8583 8.5C9.85825 8.5 8.95825 9.3 8.95825 10.4ZM21.5583 24.5H24.7583V17.9C24.7583 14.6 22.7582 13.5 20.8582 13.5C19.1582 13.5 17.9583 14.6 17.6582 15.3V13.8H14.4583V24.5H17.8582V18.8C17.8582 17.3 18.8582 16.5 19.8582 16.5C20.8582 16.5 21.5583 17 21.5583 18.7V24.5Z" fill="#FFC72C"/>
</svg>
