<svg width="33" height="33" viewBox="0 0 33 33" fill="none" xmlns="http://www.w3.org/2000/svg">
<path d="M14.2869 15.1946C14.0383 15.3722 13.7185 15.4788 13.3278 15.4788H11.1253V13.1697H13.1857C13.3988 13.1697 13.5764 13.1697 13.7541 13.2052C13.9317 13.2407 14.0738 13.3118 14.2159 13.3828C14.358 13.4894 14.4646 13.596 14.5356 13.738C14.6067 13.8801 14.6422 14.0933 14.6422 14.3064C14.6422 14.6972 14.5356 15.0169 14.2869 15.1946Z" fill="white"/>
<path d="M14.0383 19.5996C13.8606 19.6351 13.6475 19.6707 13.4344 19.6707H11.1253V16.9353H13.4699C13.9317 16.9353 14.3225 17.0418 14.6067 17.255C14.8909 17.5037 15.033 17.8589 15.033 18.3562C15.033 18.6049 14.9619 18.8181 14.8909 18.9957C14.7843 19.1733 14.6777 19.2799 14.5356 19.3865C14.3935 19.493 14.2159 19.5641 14.0383 19.5996Z" fill="white"/>
<path d="M21.4274 15.5143C21.8892 15.5143 22.28 15.6564 22.5286 15.905C22.7773 16.1537 22.9549 16.509 23.026 17.0418H19.8288C19.8288 16.9241 19.8532 16.8064 19.8817 16.6685C19.8876 16.6399 19.8937 16.6105 19.8998 16.58C19.9353 16.4024 20.0064 16.2248 20.1485 16.0827C20.2906 15.9406 20.4327 15.7985 20.6458 15.6919C20.859 15.5853 21.1077 15.5143 21.4274 15.5143Z" fill="white"/>
<path fill-rule="evenodd" clip-rule="evenodd" d="M32.9583 0.5H0.958252V32.5H32.9583V0.5ZM14.8909 11.6421C14.5001 11.5355 14.0738 11.5 13.612 11.5H8.95825V21.3048H13.7185C14.1448 21.3048 14.5711 21.2337 14.9974 21.1272C15.4237 21.0206 15.8145 20.843 16.1342 20.6298C16.4539 20.4167 16.7381 20.097 16.9158 19.7417C17.0934 19.3865 17.2 18.9602 17.2 18.4628C17.2 17.8589 17.0223 17.326 16.7381 16.8997C16.4539 16.4734 15.9921 16.1537 15.3882 15.9761C15.8145 15.763 16.1697 15.4788 16.3829 15.159C16.6316 14.8393 16.7381 14.413 16.7381 13.9157C16.7381 13.4894 16.6671 13.0986 16.525 12.7789C16.3829 12.4592 16.1697 12.2105 15.8855 12.0329C15.6013 11.8552 15.2816 11.7131 14.8909 11.6421ZM21.5695 20.0614C21.0011 20.0614 20.5748 19.9193 20.2906 19.6351C20.0064 19.3509 19.7933 18.8181 19.7933 18.2497H24.9443C24.9798 17.6813 24.9443 17.1839 24.8733 16.6866C24.7312 16.1892 24.518 15.7274 24.2338 15.3367C23.9496 14.9104 23.5944 14.6262 23.1326 14.3775C22.6707 14.1288 22.1379 14.0222 21.534 14.0222C20.9656 14.0222 20.5037 14.1288 20.0419 14.3064C19.6156 14.4841 19.2249 14.7683 18.9051 15.088C18.5854 15.4432 18.3367 15.834 18.1591 16.2958C17.9815 16.7576 17.9104 17.255 17.9104 17.7879C17.9104 18.3562 17.9815 18.8536 18.1591 19.3154C18.3012 19.7772 18.5499 20.168 18.8696 20.4877C19.1893 20.843 19.5446 21.0916 20.0064 21.2693C20.4682 21.4469 20.9656 21.5535 21.534 21.5535C22.351 21.5535 23.026 21.3403 23.5944 20.9851C24.1628 20.5943 24.5891 19.9904 24.8733 19.1378H23.1326C23.0615 19.3509 22.8839 19.5641 22.5997 19.7772C22.3155 19.9549 21.9603 20.0614 21.5695 20.0614ZM23.3812 12.175H19.4025V13.1341H23.3812V12.175Z" fill="white"/>
</svg>
