<svg width="33" height="33" viewBox="0 0 33 33" fill="none" xmlns="http://www.w3.org/2000/svg">
<path d="M16.9583 19.3C15.4583 19.3 14.1583 18.1 14.1583 16.5C14.1583 15 15.3583 13.7 16.9583 13.7C18.4583 13.7 19.7583 14.9 19.7583 16.5C19.7583 18 18.4583 19.3 16.9583 19.3Z" fill="white"/>
<path fill-rule="evenodd" clip-rule="evenodd" d="M20.3583 9.7H13.5583C12.7583 9.8 12.3583 9.9 12.0583 10C11.6583 10.1 11.3583 10.3 11.0583 10.6C10.8209 10.8374 10.7087 11.0748 10.5731 11.3617C10.5374 11.4373 10.5 11.5166 10.4583 11.6C10.4428 11.6464 10.4249 11.6952 10.4058 11.7475C10.3012 12.0333 10.1583 12.4238 10.1583 13.1V19.9C10.2583 20.7 10.3583 21.1 10.4583 21.4C10.5583 21.8 10.7583 22.1 11.0583 22.4C11.2956 22.6374 11.533 22.7495 11.82 22.8851C11.8956 22.9209 11.9748 22.9583 12.0583 23C12.1047 23.0155 12.1535 23.0333 12.2058 23.0525C12.4916 23.1571 12.882 23.3 13.5583 23.3H20.3583C21.1583 23.2 21.5583 23.1 21.8583 23C22.2583 22.9 22.5583 22.7 22.8583 22.4C23.0956 22.1626 23.2078 21.9252 23.3434 21.6383C23.3791 21.5626 23.4165 21.4835 23.4583 21.4C23.4737 21.3536 23.4916 21.3048 23.5107 21.2525C23.6153 20.9667 23.7583 20.5762 23.7583 19.9V13.1C23.6583 12.3 23.5583 11.9 23.4583 11.6C23.3583 11.2 23.1583 10.9 22.8583 10.6C22.6209 10.3626 22.3835 10.2505 22.0965 10.1149C22.021 10.0792 21.9416 10.0417 21.8583 10C21.8118 9.98453 21.763 9.96666 21.7107 9.94752C21.4249 9.8429 21.0345 9.7 20.3583 9.7ZM16.9583 12.2C14.5583 12.2 12.6583 14.1 12.6583 16.5C12.6583 18.9 14.5583 20.8 16.9583 20.8C19.3583 20.8 21.2583 18.9 21.2583 16.5C21.2583 14.1 19.3583 12.2 16.9583 12.2ZM22.3583 12.1C22.3583 12.6523 21.9105 13.1 21.3583 13.1C20.806 13.1 20.3583 12.6523 20.3583 12.1C20.3583 11.5477 20.806 11.1 21.3583 11.1C21.9105 11.1 22.3583 11.5477 22.3583 12.1Z" fill="white"/>
<path fill-rule="evenodd" clip-rule="evenodd" d="M0.958252 0.5H32.9583V32.5H0.958252V0.5ZM13.5583 8.2H20.3583C21.2583 8.3 21.8583 8.4 22.3583 8.6C22.9583 8.9 23.3583 9.1 23.8583 9.6C24.3583 10.1 24.6583 10.6 24.8583 11.1C25.0583 11.6 25.2583 12.2 25.2583 13.1V19.9C25.1583 20.8 25.0583 21.4 24.8583 21.9C24.5583 22.5 24.3583 22.9 23.8583 23.4C23.3583 23.9 22.8583 24.2 22.3583 24.4C21.8583 24.6 21.2583 24.8 20.3583 24.8H13.5583C12.6583 24.7 12.0583 24.6 11.5583 24.4C10.9583 24.1 10.5583 23.9 10.0583 23.4C9.55825 22.9 9.25825 22.4 9.05825 21.9C8.85825 21.4 8.65825 20.8 8.65825 19.9V13.1C8.75825 12.2 8.85825 11.6 9.05825 11.1C9.35825 10.5 9.55825 10.1 10.0583 9.6C10.5583 9.1 11.0583 8.8 11.5583 8.6C12.0583 8.4 12.6583 8.2 13.5583 8.2Z" fill="white"/>
</svg>
