<?xml version="1.0" encoding="UTF-8" standalone="no"?>
<!-- Created with Inkscape (http://www.inkscape.org/) -->

<svg
   width="200"
   height="169.149"
   viewBox="0 0 52.916665 44.754006"
   version="1.1"
   id="svg923"
   inkscape:version="1.2 (dc2aedaf03, 2022-05-15)"
   sodipodi:docname="logo.svg"
   xmlns:inkscape="http://www.inkscape.org/namespaces/inkscape"
   xmlns:sodipodi="http://sodipodi.sourceforge.net/DTD/sodipodi-0.dtd"
   xmlns="http://www.w3.org/2000/svg"
   xmlns:svg="http://www.w3.org/2000/svg">
  <sodipodi:namedview
     id="namedview925"
     pagecolor="#505050"
     bordercolor="#eeeeee"
     borderopacity="1"
     inkscape:showpageshadow="0"
     inkscape:pageopacity="0"
     inkscape:pagecheckerboard="0"
     inkscape:deskcolor="#505050"
     inkscape:document-units="mm"
     showgrid="false"
     inkscape:zoom="3.1001683"
     inkscape:cx="71.931579"
     inkscape:cy="118.38067"
     inkscape:window-width="1920"
     inkscape:window-height="1057"
     inkscape:window-x="1912"
     inkscape:window-y="-8"
     inkscape:window-maximized="1"
     inkscape:current-layer="layer1" />
  <defs
     id="defs920" />
  <g
     inkscape:label="Camada 1"
     inkscape:groupmode="layer"
     id="layer1">
    <path
       style="fill:#ffffff;fill-opacity:1;stroke-width:0.0353049"
       d="M 26.042131,44.712995 C 25.773614,44.644725 25.587294,44.557526 25.346216,44.387211 25.032086,44.165338 0.44182135,19.552643 0.28469795,19.302945 0.07269905,18.965939 5.8634711e-4,18.707413 4.7109688e-8,18.283086 4.7109688e-8,17.832412 0.09532905,17.524966 0.34356065,17.180983 0.43255765,17.057665 4.2012894,13.265342 8.8295078,8.6418711 16.618837,0.86067972 17.17041,0.31743222 17.387217,0.21374222 c 0.642915,-0.3073978 1.323823,-0.276384 1.900253,0.086612 0.130859,0.082442 1.381044,1.30652758 3.684307,3.60752898 l 3.486261,3.4827079 3.52179,-3.5152939 c 3.260427,-3.25439968 3.540552,-3.52492078 3.772718,-3.64406518 0.589213,-0.3024388 1.169162,-0.3080908 1.777369,-0.017523 0.216221,0.1034115 0.773657,0.6523196 8.55724,8.42790708 4.628219,4.6234699 8.396951,8.4157699 8.486066,8.5391109 0.248231,0.343983 0.344029,0.651429 0.343443,1.102102 0,0.4431 -0.07844,0.704242 -0.31624,1.059153 -0.202149,0.301806 -24.876019,24.968944 -25.135858,25.128951 -0.395974,0.24387 -1.006058,0.347607 -1.422435,0.241806 z m 3.178933,-7.285748 2.744968,-2.745085 -2.75388,-2.75361 -2.753762,-2.753644 -2.753761,2.753644 -2.75388,2.75361 2.744852,2.745085 c 1.50979,1.509756 2.752939,2.745038 2.762789,2.745038 0.0094,0 1.253001,-1.235282 2.762674,-2.745038 z M 20.239708,22.952556 16.722726,19.430533 16.577094,19.130438 c -0.280828,-0.57853 -0.280828,-1.116138 0,-1.694669 l 0.145632,-0.300094 3.525894,-3.530923 3.525893,-3.530913 -2.753527,-2.7533509 -2.753526,-2.7533749 -6.857964,6.8579858 -6.8579625,6.85794 6.8491685,6.849252 6.849169,6.849203 2.75341,-2.753422 2.753526,-2.75348 z M 41.516079,11.433882 34.66691,4.5846792 l -2.753527,2.7534209 -2.753409,2.7534809 3.516981,3.522036 3.5171,3.522058 0.145632,0.300094 c 0.189017,0.389514 0.246121,0.73169 0.187141,1.120923 -0.02826,0.186004 -0.08818,0.369709 -0.187141,0.573746 l -0.145632,0.300095 -3.516983,3.521976 -3.516982,3.522036 2.753293,2.753527 2.753292,2.753527 6.849287,-6.849263 6.849169,-6.84925 z m -12.312838,9.594242 c 1.500058,-1.499954 2.726792,-2.743139 2.725855,-2.762603 0,-0.01925 -1.228142,-1.263084 -2.727263,-2.763611 l -2.725854,-2.728165 -2.753644,2.754654 -2.753762,2.754687 2.736056,2.736162 c 1.504749,1.504866 2.743911,2.736137 2.753527,2.736137 0.0094,0 1.245027,-1.227226 2.745085,-2.727261 z"
       id="path693" />
  </g>
</svg>
